<?xml version="1.0" encoding="iso-8859-1"?>
<!-- Generator: Adobe Illustrator 19.0.0, SVG Export Plug-In . SVG Version: 6.00 Build 0)  -->
<svg version="1.1" id="Layer_1" xmlns="http://www.w3.org/2000/svg" xmlns:xlink="http://www.w3.org/1999/xlink" x="0px" y="0px"
	 viewBox="0 0 512 512" style="enable-background:new 0 0 512 512;" xml:space="preserve">
<g>
	<path style="fill:#FDC693;" d="M501.589,348.559c6.717-5.571,8.079-15.447,2.994-22.537c-10.873-15.143-19.89-18.744-57.665,1.119
		l-75.273,46.011c-23.005,12.227-83.369,8.678-109.412,8.678c0,0,61.457,4.165,36.933-32.447
		c-12.201-18.206-33.237-28.542-55.148-28.542h-33.853c-19.734,0-39.198-5.866-54.949-17.746
		c-36.769-27.717-107.485,26.667-107.485,26.667v156.203h121.492c17.33,0,34.642-1.31,51.773-3.914l113.109-17.2
		c3.862,0,7.611-0.451,11.238-1.258c0.061-0.009,0.113-0.017,0.174-0.026c9.155-1.284,17.521-5.918,24.203-12.314L501.589,348.559z"
		/>
	<polygon style="fill:#556080;" points="4.339,512 47.728,512 47.728,303.729 4.339,303.729 	"/>
	<path style="fill:#F9A571;" d="M154.316,416.542c-4.799,0-8.678-3.888-8.678-8.678c0-21.738,16.219-34.712,43.39-34.712h84.332
		c4.799,0,8.678,3.888,8.678,8.678s-3.879,8.678-8.678,8.678h-84.332c-26.034,0-26.034,13.06-26.034,17.356
		C162.994,412.655,159.115,416.542,154.316,416.542"/>
	<g>
		<polygon style="fill:#CAD3DB;" points="472.952,225.627 39.054,225.627 70.043,269.017 441.963,269.017 		"/>
		<path style="fill:#CAD3DB;" d="M256.003,43.39c-4.799,0-8.678-3.888-8.678-8.678V8.678c0-4.79,3.879-8.678,8.678-8.678
			c4.799,0,8.678,3.888,8.678,8.678v26.034C264.681,39.502,260.802,43.39,256.003,43.39"/>
		<path style="fill:#CAD3DB;" d="M282.037,17.356h-52.068c-4.799,0-8.678-3.888-8.678-8.678S225.17,0,229.969,0h52.068
			c4.799,0,8.678,3.888,8.678,8.678S286.836,17.356,282.037,17.356"/>
	</g>
	<path style="fill:#E6EEF3;" d="M446.918,225.627c0-105.437-85.478-190.915-190.915-190.915S65.088,120.19,65.088,225.627H446.918z"
		/>
	<path style="fill:#CAD3DB;" d="M120.757,156.199c-1.475,0-2.977-0.373-4.348-1.172c-4.148-2.404-5.563-7.715-3.15-11.854
		c29.479-50.844,84.176-82.432,142.744-82.432c4.799,0,8.678,3.888,8.678,8.678c0,4.799-3.879,8.678-8.678,8.678
		c-52.398,0-101.341,28.273-127.731,73.771C126.667,154.646,123.751,156.199,120.757,156.199"/>
</g>
<g>
</g>
<g>
</g>
<g>
</g>
<g>
</g>
<g>
</g>
<g>
</g>
<g>
</g>
<g>
</g>
<g>
</g>
<g>
</g>
<g>
</g>
<g>
</g>
<g>
</g>
<g>
</g>
<g>
</g>
</svg>
